<?xml version="1.0" encoding="UTF-8"?>
<svg version="1.1" xmlns="http://www.w3.org/2000/svg" width="34" height="40">
<path d="M0 0 C3.44717312 2.77237272 4.68102788 5.73058365 6.0625 9.875 C4.45917209 9.95621924 2.85465974 10.01429134 1.25 10.0625 C-0.08998047 10.11470703 -0.08998047 10.11470703 -1.45703125 10.16796875 C-4.45266357 9.81415391 -4.89801588 8.9578774 -6.9375 6.875 C-9.22080101 6.51353543 -9.22080101 6.51353543 -11.625 6.6875 C-12.83736328 6.72810547 -12.83736328 6.72810547 -14.07421875 6.76953125 C-14.68910156 6.80433594 -15.30398438 6.83914063 -15.9375 6.875 C-17.18982595 10.63197784 -17.38875842 13.94494941 -16.9375 17.875 C-15.42397003 20.34444364 -14.220119 20.75600253 -11.5625 21.875 C-10.69625 21.875 -9.83 21.875 -8.9375 21.875 C-7.8546875 20.6684375 -7.8546875 20.6684375 -6.75 19.4375 C-3.53218561 16.50571356 -2.79185357 16.52728715 1.375 16.5625 C2.93892824 16.64240874 4.50247572 16.7386872 6.0625 16.875 C4.95441046 21.67672134 4.01563492 24.78661335 0.0625 27.875 C-0.5975 27.875 -1.2575 27.875 -1.9375 27.875 C0.42542656 30.40088702 1.72712511 31.76320837 5.0625 32.875 C5.0625 33.865 5.0625 34.855 5.0625 35.875 C-0.14648542 37.61132847 -4.85783414 37.45660529 -9.84375 35.04296875 C-24.83032234 26.68292187 -24.83032234 26.68292187 -27.45703125 19.8828125 C-28.57908363 15.19391067 -28.4510993 11.38558619 -26.875 6.75 C-24.1549868 2.71385139 -20.71732987 -1.1475395 -16.015625 -2.80078125 C-10.45563031 -3.66822403 -4.77393559 -3.08782217 0 0 Z " fill="#AC1722" transform="translate(27.9375,3.125)"/>
<path d="M0 0 C1.33998047 0.06960937 1.33998047 0.06960937 2.70703125 0.140625 C3.60808594 0.17671875 4.50914063 0.2128125 5.4375 0.25 C6.46810547 0.31960937 6.46810547 0.31960937 7.51953125 0.390625 C6.31398084 6.53893211 4.60395001 8.74310719 -0.48046875 12.390625 C-2.41796875 11.765625 -2.41796875 11.765625 -4.48046875 10.390625 C-5.41796875 7.515625 -5.41796875 7.515625 -5.48046875 4.390625 C-3.94424125 1.53324185 -3.26369971 0.51396846 0 0 Z " fill="#6C0F1C" transform="translate(26.48046875,19.609375)"/>
</svg>
